# xmcd
#
# Track frame offsets:
#	150
#	13247
#	27345
#	37747
#	48510
#	58944
#	75567
#	86005
#	94151
#	108292
#	121107
#	131051
#	139912
#	152300
#	165862
#	191332
#	199082
#	213757
#
# Disc length: 3107 seconds
#
# Revision: 0
# Processed by: cddbd v1.5PL3 Copyright (c) Steve Scherf et al.
# Submitted via: dBpowerAMP V4.0
#
DISCID=e10c2112
DTITLE=The Tumbleweeds - Somewhere Between
DYEAR=1900
DGENRE=Country
TTITLE0=Somewhere Between
TTITLE1=Country Girl
TTITLE2=You're Still On My Mind
TTITLE3=Tumbleweeds Polka
TTITLE4=Lead Me On
TTITLE5=Kentucky Hills Of Tennessee
TTITLE6=Ashes Of Love
TTITLE7=Close Up Steel
TTITLE8=Sweet Memories
TTITLE9=Don't Cry Blue
TTITLE10=Going Back To The Hard Times
TTITLE11=Mojave
TTITLE12=It Might As Well Have Rained
TTITLE13=Southern Queen
TTITLE14=Lefty Frizzel Medley
TTITLE15=Between Two Doors
TTITLE16=Sing Me Another Lovesong
TTITLE17=Where Did We Go Right
EXTD=
EXTT0=
EXTT1=
EXTT2=
EXTT3=
EXTT4=
EXTT5=
EXTT6=
EXTT7=
EXTT8=
EXTT9=
EXTT10=
EXTT11=
EXTT12=
EXTT13=
EXTT14=
EXTT15=
EXTT16=
EXTT17=
PLAYORDER=
